<svg xmlns="http://www.w3.org/2000/svg" version="1.1" xmlns:xlink="http://www.w3.org/1999/xlink" xmlns:svgjs="http://svgjs.dev/svgjs" width="600" height="600"><svg width="600" height="600" viewBox="0 0 600 600" fill="none" xmlns="http://www.w3.org/2000/svg">
<g clip-path="url(#clip0_3486_5645)">
<path d="M52.6456 227.33C81.6797 126.076 96.1968 75.4485 130.925 46.0485C145.96 33.321 163.354 23.6793 182.114 17.674C225.45 3.80209 276.077 18.3192 377.332 47.3533V47.3533C478.586 76.3875 529.213 90.9046 558.613 125.633C571.34 140.668 580.982 158.062 586.987 176.822C600.859 220.158 586.342 270.785 557.308 372.039V372.039C528.274 473.294 513.757 523.921 479.028 553.321C463.994 566.048 446.6 575.69 427.839 581.695C384.503 595.567 333.876 581.05 232.622 552.016V552.016C131.368 522.982 80.7407 508.464 51.3407 473.736C38.6132 458.702 28.9715 441.307 22.9662 422.547C9.09431 379.211 23.6114 328.584 52.6456 227.33V227.33Z" fill="#F6F6F9" style="fill:#F6F6F9;fill:color(display-p3 0.9647 0.9647 0.9765);fill-opacity:1;"></path>
<g clip-path="url(#clip1_3486_5645)">
<path d="M321.427 189.645C321.427 167.554 339.336 149.645 361.427 149.645H414.761C436.852 149.645 454.761 167.554 454.761 189.645V276.312C454.761 298.403 436.852 316.312 414.761 316.312H361.427C339.336 316.312 321.427 298.403 321.427 276.312V189.645Z" fill="#F8568B" style="fill:#F8568B;fill:color(display-p3 0.9725 0.3373 0.5451);fill-opacity:1;"></path>
<path d="M154.761 189.645C154.761 167.553 172.669 149.645 194.761 149.645H248.094C270.185 149.645 288.094 167.553 288.094 189.645V209.645C288.094 231.736 270.185 249.645 248.094 249.645H194.761C172.669 249.645 154.761 231.736 154.761 209.645V189.645Z" fill="#00BBFF" style="fill:#00BBFF;fill:color(display-p3 0.0000 0.7333 1.0000);fill-opacity:1;"></path>
<path d="M154.76 322.978C154.76 300.887 172.669 282.978 194.76 282.978H248.094C270.185 282.978 288.094 300.887 288.094 322.978V409.645C288.094 431.736 270.185 449.645 248.094 449.645H194.761C172.669 449.645 154.76 431.736 154.76 409.645V322.978Z" fill="#FFDA47" style="fill:#FFDA47;fill:color(display-p3 1.0000 0.8549 0.2784);fill-opacity:1;"></path>
<path d="M321.427 389.645C321.427 367.554 339.336 349.645 361.427 349.645H414.761C436.852 349.645 454.761 367.554 454.761 389.645V409.645C454.761 431.736 436.852 449.645 414.761 449.645H361.427C339.336 449.645 321.427 431.736 321.427 409.645V389.645Z" fill="#00E1D3" style="fill:#00E1D3;fill:color(display-p3 0.0000 0.8824 0.8275);fill-opacity:1;"></path>
</g>
</g>
<defs>
<clipPath id="SvgjsClipPath1003">
<path d="M0 300C0 206.812 0 160.218 15.2241 123.463C35.5229 74.4577 74.4577 35.5229 123.463 15.2241C160.218 0 206.812 0 300 0V0C393.188 0 439.782 0 476.537 15.2241C525.542 35.5229 564.477 74.4577 584.776 123.463C600 160.218 600 206.812 600 300V300C600 393.188 600 439.782 584.776 476.537C564.477 525.542 525.542 564.477 476.537 584.776C439.782 600 393.188 600 300 600V600C206.812 600 160.218 600 123.463 584.776C74.4577 564.477 35.5229 525.542 15.2241 476.537C0 439.782 0 393.188 0 300V300Z" fill="white" style="fill:white;fill-opacity:1;"></path>
</clipPath>
<clipPath id="SvgjsClipPath1002">
<rect width="300" height="300" fill="white" style="fill:white;fill-opacity:1;" transform="translate(154.761 149.645)"></rect>
</clipPath>
</defs>
</svg><style>@media (prefers-color-scheme: light) { :root { filter: none; } }
@media (prefers-color-scheme: dark) { :root { filter: none; } }
</style></svg>